<svg width="512" height="512" viewBox="0 0 512 512" fill="none" xmlns="http://www.w3.org/2000/svg">
<path fill-rule="evenodd" clip-rule="evenodd" d="M255.012 512L33 388.699V136.919L255.012 12L478 136.919V388.699L255.012 512ZM147.277 324.656C135.309 306.075 120.108 256.435 153.5 203.5C169.167 179.833 217.4 136.8 285 154C299.833 156.333 335.1 169.8 357.5 205C357.5 205 393.435 185.799 393.5 184C386.3 172.8 370.833 156.333 364 149.5C329.6 116.3 279.333 109 258.5 109.5C192.5 103.1 142.333 148.833 125.5 172.5C72.7 244.1 94.5 318 112 346L116.5 385L222 456.5C245.667 454 293.6 448.7 296 447.5C298.4 446.3 369.667 414.667 405 399L425.5 327L367 307.5L186 302.5L147.277 324.656Z" fill="black"/>
<path fill-rule="evenodd" clip-rule="evenodd" d="M34 388.5L254.5 511L477 388.5V135.5L146.939 324C183.5 398 304.5 424.5 362.5 324L400 343.5C388 369 344.5 421.8 266.5 429C169 438 114.5 352.979 111.5 344.239L34 388.5Z" fill="black"/>
<path d="M256.5 262L477 389.5V137.5L256.5 262Z" fill="black"/>
</svg>
