<svg width="418" height="418" viewBox="0 0 418 418" fill="none" xmlns="http://www.w3.org/2000/svg">
<path fill-rule="evenodd" clip-rule="evenodd" d="M0 209V0H418V418H0V209ZM152.5 382.5V227.5H98.5V193H245V227.5H191V382.5H152.5ZM354.5 380C295.7 397.2 263.667 363.833 255 345L286.5 327C287.38 327.971 288.219 328.901 289.024 329.793C301.475 343.594 305.532 348.091 321.5 349.5C338.5 351 347.5 345 351 332C353.8 321.6 339.167 312 331.5 308.5L300.5 295C280.5 285.4 271.167 267.667 269 260C257.8 220.4 285.333 199.833 300.5 194.5C316.1 188.5 334.667 191 342 193C360 195.4 373.833 213 378.5 221.5L349.5 241C348.3 241.4 346 237.833 345 236C340.2 229.2 334 226.5 331.5 226C316.7 222.4 309 229.5 307 233.5C303 241.5 306 248.833 308 251.5C309.2 255.5 320.167 261.167 325.5 263.5L347.5 273.5C375.5 285.9 384.833 302 386 308.5C401.6 352.9 371.5 374.667 354.5 380Z" fill="black"/>
</svg>
